<?xml version="1.0" encoding="UTF-8"?>
<svg id="Layer_1" data-name="Layer 1" xmlns="http://www.w3.org/2000/svg" version="1.1" viewBox="0 0 133.1 16">
  <defs>
    <style>
      .cls-1 {
        fill: #fff;
        stroke-width: 0px;
	stroke: #ccc;
      }
    </style>
  </defs>
  <g>
    <circle class="cls-1" cx="35.1" cy="8" r="8"/>
    <path class="cls-1" d="M13.1,10.9c0,2.6-2.1,4.7-4.7,4.7H.7v-3.6h7.6c.6,0,1.1-.5,1.1-1.1s-.5-1.1-1.1-1.1h-3.5c-.4,0-.7,0-1.1-.1-2.1-.5-3.7-2.4-3.7-4.6S2.2.3,4.8.3h7.6v3.6h-7.6c-.6,0-1.1.5-1.1,1.1s.5,1.1,1.1,1.1h3.5c.4,0,.7,0,1.1,0,2.1.5,3.7,2.4,3.7,4.6h0Z"/>
    <polygon class="cls-1" points="16.1 3.9 16.1 3.9 16.1 3.9 16.1 3.9"/>
    <polygon class="cls-1" points="16.1 6.2 16.1 6.2 16.1 6.2 16.1 6.2"/>
    <polygon class="cls-1" points="24.5 6.2 24.5 9.8 18.9 9.8 18.9 15.7 15.3 15.7 15.3 6.2 24.5 6.2"/>
    <path class="cls-1" d="M27.5.3h0c0,1.8-1.3,3.3-3,3.6h-9.2c.5-2.1,2.4-3.6,4.6-3.6,0,0,7.6,0,7.6,0Z"/>
  </g>
  <g>
    <g>
      <path class="cls-1" d="M70.9,10.7v-6.7h2.6v6.6c0,1.9,1,2.9,2.5,2.9s2.5-1,2.5-2.8v-6.7h2.6v6.6c0,3.5-2,5.3-5.1,5.3s-5.1-1.8-5.1-5.2Z"/>
      <path class="cls-1" d="M83.4,14.1l1.5-1.8c1.1.9,2.2,1.4,3.5,1.4s1.7-.4,1.7-1.1h0c0-.7-.4-1-2.4-1.5-2.4-.6-3.9-1.3-3.9-3.6h0c0-2.2,1.7-3.6,4.1-3.6s3.2.5,4.3,1.5l-1.3,1.9c-1-.7-2.1-1.2-3-1.2s-1.5.5-1.5,1h0c0,.8.5,1.1,2.5,1.6,2.4.6,3.7,1.5,3.7,3.5h0c0,2.4-1.8,3.7-4.3,3.7s-3.6-.6-5-1.9Z"/>
      <path class="cls-1" d="M95.3,4.1h8.8v2.3h-6.3v2.4h5.5v2.3h-5.5v2.5h6.3v2.3h-8.9V4.1Z"/>
      <path class="cls-1" d="M107.1,10.7v-6.7h2.6v6.6c0,1.9,1,2.9,2.5,2.9s2.5-1,2.5-2.8v-6.7h2.6v6.6c0,3.5-2,5.3-5.1,5.3s-5.1-1.8-5.1-5.2Z"/>
    </g>
    <path class="cls-1" d="M65.7,15.7v-7s-3.5,5.8-3.5,5.8h-1.2l-3.4-5.6v6.9h-2.5V4.1h2.2l4.4,7.3,4.3-7.3h2.2v11.7s-2.5,0-2.5,0Z"/>
    <path class="cls-1" d="M130.6,15.7v-7s-3.5,5.8-3.5,5.8h-1.2l-3.4-5.6v6.9h-2.5V4.1h2.2l4.4,7.3,4.3-7.3h2.2v11.7s-2.5,0-2.5,0Z"/>
  </g>
</svg>